<mxfile host="app.diagrams.net" agent="Mozilla/5.0 (Windows NT 10.0; Win64; x64) AppleWebKit/537.36 (KHTML, like Gecko) Chrome/139.0.0.0 Safari/537.36 Edg/139.0.0.0" version="28.1.2">
  <diagram name="Page-1" id="oynkgyt67iiYG_himNB7">
    <mxGraphModel dx="1393" dy="508" grid="1" gridSize="10" guides="1" tooltips="1" connect="1" arrows="1" fold="1" page="1" pageScale="1" pageWidth="827" pageHeight="1169" math="0" shadow="0">
      <root>
        <mxCell id="0" />
        <mxCell id="1" parent="0" />
        <mxCell id="OmpD1zne7NVMYbnwOuJU-1" value="Patient" style="shape=umlActor;verticalLabelPosition=bottom;verticalAlign=top;html=1;outlineConnect=0;" vertex="1" parent="1">
          <mxGeometry x="170" y="140" width="30" height="60" as="geometry" />
        </mxCell>
        <mxCell id="OmpD1zne7NVMYbnwOuJU-2" value="" style="swimlane;startSize=0;" vertex="1" parent="1">
          <mxGeometry x="270" y="100" width="360" height="330" as="geometry" />
        </mxCell>
        <mxCell id="OmpD1zne7NVMYbnwOuJU-3" value="Créer dossier médical&amp;nbsp;" style="ellipse;whiteSpace=wrap;html=1;" vertex="1" parent="OmpD1zne7NVMYbnwOuJU-2">
          <mxGeometry x="5" y="10" width="80" height="40" as="geometry" />
        </mxCell>
        <mxCell id="OmpD1zne7NVMYbnwOuJU-7" value="Consulter résultats examens" style="ellipse;whiteSpace=wrap;html=1;" vertex="1" parent="OmpD1zne7NVMYbnwOuJU-2">
          <mxGeometry y="70" width="80" height="50" as="geometry" />
        </mxCell>
        <mxCell id="OmpD1zne7NVMYbnwOuJU-6" value="Prendre rendez vous" style="ellipse;whiteSpace=wrap;html=1;" vertex="1" parent="OmpD1zne7NVMYbnwOuJU-2">
          <mxGeometry x="70" y="40" width="90" height="50" as="geometry" />
        </mxCell>
        <mxCell id="OmpD1zne7NVMYbnwOuJU-8" value="Payer Facture" style="ellipse;whiteSpace=wrap;html=1;" vertex="1" parent="OmpD1zne7NVMYbnwOuJU-2">
          <mxGeometry x="70" y="110" width="90" height="40" as="geometry" />
        </mxCell>
        <mxCell id="OmpD1zne7NVMYbnwOuJU-16" value="Consulter dossier du patient&amp;nbsp;" style="ellipse;whiteSpace=wrap;html=1;" vertex="1" parent="OmpD1zne7NVMYbnwOuJU-2">
          <mxGeometry x="5" y="160" width="95" height="50" as="geometry" />
        </mxCell>
        <mxCell id="OmpD1zne7NVMYbnwOuJU-17" value="Enregistrer diagnostic&amp;nbsp;" style="ellipse;whiteSpace=wrap;html=1;" vertex="1" parent="OmpD1zne7NVMYbnwOuJU-2">
          <mxGeometry x="80" y="200" width="100" height="50" as="geometry" />
        </mxCell>
        <mxCell id="OmpD1zne7NVMYbnwOuJU-18" value="Prescrire traitement&amp;nbsp;" style="ellipse;whiteSpace=wrap;html=1;" vertex="1" parent="OmpD1zne7NVMYbnwOuJU-2">
          <mxGeometry x="5" y="240" width="90" height="40" as="geometry" />
        </mxCell>
        <mxCell id="OmpD1zne7NVMYbnwOuJU-19" value="Demander examen complémentaire" style="ellipse;whiteSpace=wrap;html=1;" vertex="1" parent="OmpD1zne7NVMYbnwOuJU-2">
          <mxGeometry x="75" y="270" width="105" height="60" as="geometry" />
        </mxCell>
        <mxCell id="OmpD1zne7NVMYbnwOuJU-24" value="Gérer compte utilisateur&amp;nbsp;" style="ellipse;whiteSpace=wrap;html=1;" vertex="1" parent="OmpD1zne7NVMYbnwOuJU-2">
          <mxGeometry x="250" y="150" width="90" height="50" as="geometry" />
        </mxCell>
        <mxCell id="OmpD1zne7NVMYbnwOuJU-25" value="Gérer planning rendez-vou" style="ellipse;whiteSpace=wrap;html=1;" vertex="1" parent="OmpD1zne7NVMYbnwOuJU-2">
          <mxGeometry x="250" y="210" width="90" height="50" as="geometry" />
        </mxCell>
        <mxCell id="OmpD1zne7NVMYbnwOuJU-26" value="Gérer facturation" style="ellipse;whiteSpace=wrap;html=1;" vertex="1" parent="OmpD1zne7NVMYbnwOuJU-2">
          <mxGeometry x="250" y="270" width="90" height="50" as="geometry" />
        </mxCell>
        <mxCell id="OmpD1zne7NVMYbnwOuJU-27" value="Vérifier couverture patient" style="ellipse;whiteSpace=wrap;html=1;" vertex="1" parent="OmpD1zne7NVMYbnwOuJU-2">
          <mxGeometry x="240" y="27.5" width="100" height="75" as="geometry" />
        </mxCell>
        <mxCell id="OmpD1zne7NVMYbnwOuJU-51" value="" style="shape=mxgraph.arrows2.wedgeArrow;html=1;bendable=0;startWidth=6.875;fillColor=strokeColor;defaultFillColor=invert;defaultGradientColor=invert;rounded=0;" edge="1" parent="OmpD1zne7NVMYbnwOuJU-2">
          <mxGeometry width="100" height="100" relative="1" as="geometry">
            <mxPoint x="289.89" y="17.5" as="sourcePoint" />
            <mxPoint x="289.89" y="27.5" as="targetPoint" />
          </mxGeometry>
        </mxCell>
        <mxCell id="OmpD1zne7NVMYbnwOuJU-12" value="Médécin" style="shape=umlActor;verticalLabelPosition=bottom;verticalAlign=top;html=1;outlineConnect=0;" vertex="1" parent="1">
          <mxGeometry x="170" y="330" width="30" height="60" as="geometry" />
        </mxCell>
        <mxCell id="OmpD1zne7NVMYbnwOuJU-20" value="Système d&#39;assurance&amp;nbsp;" style="shape=umlActor;verticalLabelPosition=bottom;verticalAlign=top;html=1;outlineConnect=0;" vertex="1" parent="1">
          <mxGeometry x="690" y="140" width="30" height="60" as="geometry" />
        </mxCell>
        <mxCell id="OmpD1zne7NVMYbnwOuJU-42" value="" style="edgeStyle=orthogonalEdgeStyle;rounded=0;orthogonalLoop=1;jettySize=auto;html=1;" edge="1" parent="1" source="OmpD1zne7NVMYbnwOuJU-21" target="OmpD1zne7NVMYbnwOuJU-25">
          <mxGeometry relative="1" as="geometry" />
        </mxCell>
        <mxCell id="OmpD1zne7NVMYbnwOuJU-43" style="edgeStyle=orthogonalEdgeStyle;rounded=0;orthogonalLoop=1;jettySize=auto;html=1;entryX=1;entryY=0.5;entryDx=0;entryDy=0;" edge="1" parent="1" source="OmpD1zne7NVMYbnwOuJU-21" target="OmpD1zne7NVMYbnwOuJU-24">
          <mxGeometry relative="1" as="geometry" />
        </mxCell>
        <mxCell id="OmpD1zne7NVMYbnwOuJU-44" style="edgeStyle=orthogonalEdgeStyle;rounded=0;orthogonalLoop=1;jettySize=auto;html=1;entryX=1;entryY=0.5;entryDx=0;entryDy=0;" edge="1" parent="1" source="OmpD1zne7NVMYbnwOuJU-21" target="OmpD1zne7NVMYbnwOuJU-26">
          <mxGeometry relative="1" as="geometry" />
        </mxCell>
        <mxCell id="OmpD1zne7NVMYbnwOuJU-21" value="Administrateur" style="shape=umlActor;verticalLabelPosition=bottom;verticalAlign=top;html=1;outlineConnect=0;" vertex="1" parent="1">
          <mxGeometry x="690" y="280" width="30" height="60" as="geometry" />
        </mxCell>
        <mxCell id="OmpD1zne7NVMYbnwOuJU-32" value="" style="endArrow=classic;html=1;rounded=0;entryX=0;entryY=0.5;entryDx=0;entryDy=0;" edge="1" parent="1" target="OmpD1zne7NVMYbnwOuJU-3">
          <mxGeometry width="50" height="50" relative="1" as="geometry">
            <mxPoint x="200" y="190" as="sourcePoint" />
            <mxPoint x="250" y="140" as="targetPoint" />
          </mxGeometry>
        </mxCell>
        <mxCell id="OmpD1zne7NVMYbnwOuJU-33" value="" style="endArrow=classic;html=1;rounded=0;entryX=0;entryY=0.5;entryDx=0;entryDy=0;" edge="1" parent="1" target="OmpD1zne7NVMYbnwOuJU-6">
          <mxGeometry width="50" height="50" relative="1" as="geometry">
            <mxPoint x="210" y="195" as="sourcePoint" />
            <mxPoint x="260" y="145" as="targetPoint" />
          </mxGeometry>
        </mxCell>
        <mxCell id="OmpD1zne7NVMYbnwOuJU-34" value="" style="endArrow=classic;html=1;rounded=0;" edge="1" parent="1" target="OmpD1zne7NVMYbnwOuJU-7">
          <mxGeometry width="50" height="50" relative="1" as="geometry">
            <mxPoint x="210" y="210" as="sourcePoint" />
            <mxPoint x="260" y="160" as="targetPoint" />
          </mxGeometry>
        </mxCell>
        <mxCell id="OmpD1zne7NVMYbnwOuJU-35" value="" style="endArrow=classic;html=1;rounded=0;entryX=0;entryY=0.5;entryDx=0;entryDy=0;" edge="1" parent="1" target="OmpD1zne7NVMYbnwOuJU-8">
          <mxGeometry width="50" height="50" relative="1" as="geometry">
            <mxPoint x="200" y="220" as="sourcePoint" />
            <mxPoint x="250" y="170" as="targetPoint" />
          </mxGeometry>
        </mxCell>
        <mxCell id="OmpD1zne7NVMYbnwOuJU-36" value="" style="endArrow=classic;html=1;rounded=0;entryX=0.005;entryY=0.554;entryDx=0;entryDy=0;entryPerimeter=0;" edge="1" parent="1" target="OmpD1zne7NVMYbnwOuJU-2">
          <mxGeometry width="50" height="50" relative="1" as="geometry">
            <mxPoint x="200" y="370" as="sourcePoint" />
            <mxPoint x="250" y="320" as="targetPoint" />
          </mxGeometry>
        </mxCell>
        <mxCell id="OmpD1zne7NVMYbnwOuJU-37" value="" style="endArrow=classic;html=1;rounded=0;entryX=0.016;entryY=0.32;entryDx=0;entryDy=0;entryPerimeter=0;" edge="1" parent="1" target="OmpD1zne7NVMYbnwOuJU-17">
          <mxGeometry width="50" height="50" relative="1" as="geometry">
            <mxPoint x="200" y="380" as="sourcePoint" />
            <mxPoint x="250" y="330" as="targetPoint" />
          </mxGeometry>
        </mxCell>
        <mxCell id="OmpD1zne7NVMYbnwOuJU-38" value="" style="endArrow=classic;html=1;rounded=0;entryX=0;entryY=0.5;entryDx=0;entryDy=0;" edge="1" parent="1" target="OmpD1zne7NVMYbnwOuJU-18">
          <mxGeometry width="50" height="50" relative="1" as="geometry">
            <mxPoint x="210" y="390" as="sourcePoint" />
            <mxPoint x="260" y="340" as="targetPoint" />
          </mxGeometry>
        </mxCell>
        <mxCell id="OmpD1zne7NVMYbnwOuJU-39" value="" style="endArrow=classic;html=1;rounded=0;entryX=0;entryY=0.5;entryDx=0;entryDy=0;" edge="1" parent="1" target="OmpD1zne7NVMYbnwOuJU-19">
          <mxGeometry width="50" height="50" relative="1" as="geometry">
            <mxPoint x="210" y="410" as="sourcePoint" />
            <mxPoint x="260" y="360" as="targetPoint" />
          </mxGeometry>
        </mxCell>
        <mxCell id="OmpD1zne7NVMYbnwOuJU-41" value="" style="endArrow=classic;html=1;rounded=0;entryX=0.992;entryY=0.356;entryDx=0;entryDy=0;entryPerimeter=0;" edge="1" parent="1" target="OmpD1zne7NVMYbnwOuJU-27">
          <mxGeometry width="50" height="50" relative="1" as="geometry">
            <mxPoint x="690" y="180" as="sourcePoint" />
            <mxPoint x="630" y="140" as="targetPoint" />
          </mxGeometry>
        </mxCell>
        <mxCell id="OmpD1zne7NVMYbnwOuJU-47" value="" style="endArrow=none;dashed=1;html=1;rounded=0;" edge="1" parent="1">
          <mxGeometry width="50" height="50" relative="1" as="geometry">
            <mxPoint x="184.5" y="130" as="sourcePoint" />
            <mxPoint x="184.5" y="80" as="targetPoint" />
          </mxGeometry>
        </mxCell>
        <mxCell id="OmpD1zne7NVMYbnwOuJU-48" value="" style="endArrow=none;dashed=1;html=1;rounded=0;" edge="1" parent="1">
          <mxGeometry width="50" height="50" relative="1" as="geometry">
            <mxPoint x="190" y="80" as="sourcePoint" />
            <mxPoint x="570" y="80" as="targetPoint" />
          </mxGeometry>
        </mxCell>
        <mxCell id="OmpD1zne7NVMYbnwOuJU-49" value="" style="endArrow=none;dashed=1;html=1;rounded=0;exitX=0.5;exitY=0;exitDx=0;exitDy=0;" edge="1" parent="1" source="OmpD1zne7NVMYbnwOuJU-27">
          <mxGeometry width="50" height="50" relative="1" as="geometry">
            <mxPoint x="570" y="130" as="sourcePoint" />
            <mxPoint x="570" y="80" as="targetPoint" />
          </mxGeometry>
        </mxCell>
        <mxCell id="OmpD1zne7NVMYbnwOuJU-52" value="Système de gestion hospitalière&amp;nbsp;" style="text;html=1;align=center;verticalAlign=middle;whiteSpace=wrap;rounded=0;" vertex="1" parent="1">
          <mxGeometry x="385" y="30" width="130" height="50" as="geometry" />
        </mxCell>
      </root>
    </mxGraphModel>
  </diagram>
</mxfile>
